<?xml version="1.0" encoding="utf-8"?><svg version="1.1" id="Layer_1" xmlns="http://www.w3.org/2000/svg" xmlns:xlink="http://www.w3.org/1999/xlink" x="0px" y="0px" viewBox="0 0 192.2 94.8" style="enable-background:new 0 0 192.2 94.8;" xml:space="preserve"><style type="text/css">.st0{fill:#ffffff;}.st1{fill:#ffffff;}</style><g><g><g><g><path class="st0" d="M0,62.1h27.9c5,0,7.5,2,7.5,6.5v7.2c0,4.5-2.5,6.4-7.5,6.4H7.8v12.6H0V62.1z M7.8,68.1v8.2h16.7c2.3,0,3.2-0.4,3.2-2.5v-3.4c0-1.5-0.9-2.2-3.2-2.2H7.8z"/></g><g><path class="st0" d="M54.7,62.1h7.5l18.8,32.7H72l-3.9-7.1H47.9l-3.7,7.1h-8L54.7,62.1z M64.8,81.5L58.2,69l-6.9,12.5H64.8z"/></g></g><path class="st0" d="M87.1,68.6c0-4.5,2.5-6.5,7.5-6.5h29v6H94.9v20.7h20.8v-6.6h-9.9v-6h17.7v6v6.6v4.9v1.1H87.1V68.6z"/></g><g><g><polygon class="st1" points="170.9,15.2 159.3,3.6 162.9,0 174.5,11.6 "/><rect x="158.7" y="22.8" transform="matrix(0.7068 -0.7074 0.7074 0.7068 31.0183 125.4899)" class="st1" width="16.3" height="5.1"/><rect x="141" y="40.5" transform="matrix(0.7068 -0.7074 0.7074 0.7068 13.266 118.1389)" class="st1" width="16.4" height="5.1"/><rect x="176.5" y="40.5" transform="matrix(0.7071 -0.7072 0.7072 0.7071 23.6464 143.1721)" class="st1" width="16.3" height="5.1"/><rect x="158.7" y="58.3" transform="matrix(0.7071 -0.7071 0.7071 0.7071 5.8973 135.812)" class="st1" width="16.4" height="5.1"/><rect x="182.1" y="17.1" transform="matrix(0.7072 -0.707 0.707 0.7072 36.1534 137.9426)" class="st1" width="5.1" height="16.3"/><rect x="146.6" y="17.1" transform="matrix(0.7073 -0.7069 0.7069 0.7073 25.775 112.8539)" class="st1" width="5.1" height="16.4"/><rect x="164.4" y="34.9" transform="matrix(0.7073 -0.7069 0.7069 0.7073 18.4266 130.5913)" class="st1" width="5.1" height="16.3"/></g></g></g></svg>